<?xml version="1.0" encoding="UTF-8" standalone="no"?>
<!DOCTYPE svg PUBLIC "-//W3C//DTD SVG 1.1//EN" "http://www.w3.org/Graphics/SVG/1.1/DTD/svg11.dtd">
<svg width="100%" height="100%" viewBox="0 0 646 314" version="1.1" xmlns="http://www.w3.org/2000/svg" xmlns:xlink="http://www.w3.org/1999/xlink" xml:space="preserve" xmlns:serif="http://www.serif.com/" style="fill-rule:evenodd;clip-rule:evenodd;stroke-linejoin:round;stroke-miterlimit:2;">
    <g id="画板2" transform="matrix(0.751401,0,0,0.625453,76.7066,59.4567)">
        <rect x="-102.085" y="-95.062" width="859.02" height="501.417" style="fill:none;"/>
        <g transform="matrix(0.769807,0,0,1.01892,-116.212,-35.6595)">
            <path d="M222.181,366.441C224.709,365.831 227.099,364.808 229.152,363.338C232.565,360.895 235.291,357.259 236.115,351.883C237.276,344.308 235.232,337.158 230.492,331.917C225.745,326.667 218.194,323.01 207.472,323.312C193.625,323.701 185.235,325.927 180.139,330.431C176.213,333.901 173.621,338.855 172.822,346.471C170.68,366.89 193.776,380.359 214.671,380.359C219.919,380.359 224.18,376.492 224.18,371.729C224.18,369.737 223.434,367.901 222.181,366.441ZM199.082,341.157C198.301,341.259 197.561,341.38 196.862,341.523C195.414,341.819 194.218,342.08 193.405,342.799C192.157,343.901 192.007,345.687 191.753,348.107C191.292,352.504 193.961,355.881 197.594,358.286L198.144,358.632C197.837,358.145 197.587,357.659 197.399,357.181C197.065,356.334 195.579,348.733 196.43,345.736C196.991,343.759 197.917,342.26 199.082,341.157ZM209.066,355.471C208.193,355.713 207.266,355.842 206.307,355.842C207.288,355.842 208.208,355.717 209.066,355.471ZM213.096,341.174C214.778,342.729 215.815,344.861 215.815,347.212C215.815,348.097 215.668,348.951 215.394,349.754C215.823,349.838 216.266,349.895 216.618,349.878C216.782,349.87 217.03,349.826 217.212,349.789L217.28,349.505C217.661,347.015 217.351,344.591 215.793,342.868C215.106,342.108 214.198,341.55 213.096,341.174Z" style="fill:rgb(210,235,235);"/>
        </g>
        <g transform="matrix(-1.33085,0,0,1.59884,715.422,-506.953)">
            <g transform="matrix(-1,0,0,1,629.718,242.208)">
                <path d="M256.806,94.011C268.434,91.86 280.191,90.846 290.818,91.692C305.118,91.392 313.918,95.292 323.718,99.492C335.734,104.587 554.379,188.692 571.372,200.257L571.975,200.544C577.627,203.234 586.576,214.913 590.147,221.023C590.964,221.868 591.77,223.913 591.668,224.245L591.677,224.292C591.672,224.291 591.668,224.29 591.663,224.289L591.645,224.283C591.637,224.289 591.628,224.292 591.618,224.292C591.605,224.282 591.586,224.271 591.558,224.257C585.127,222.228 318.204,132.225 282.308,120.121C280.423,119.665 279.012,119.384 278.118,119.292C275.749,119.048 273.301,118.891 270.789,118.811C260.998,119.043 242.433,120.083 219.684,124.252C206.434,126.904 194.254,130.031 185.243,132.464C180.463,133.885 175.611,135.453 170.718,137.182C170.718,137.182 171.015,136.827 171.62,136.177C171.271,136.265 170.97,136.336 170.718,136.392C170.718,136.344 171.433,135.762 172.951,134.797C176.077,131.654 182.55,125.749 192.775,119.188C201.318,111.229 226.949,100.004 253.871,94.578C254.821,94.374 255.802,94.185 256.806,94.011ZM570.063,207.877L569.559,208.77L572.607,209.823L572.997,209.072L570.063,207.877ZM563.546,205.222L562.798,206.421L566.336,207.578L566.881,206.58L565.135,205.869L563.546,205.222ZM555.863,202.094L555.086,203.258L558.407,204.471L559.023,203.38L555.863,202.094ZM548.054,198.92L547.074,200.542L550.787,201.838L551.621,200.369L548.054,198.92ZM539.867,195.597L538.615,197.528L542.894,199.045L543.851,197.213L540.728,195.946L539.867,195.597ZM528.862,191.141L527.123,193.872L532.359,195.694L533.845,193.158L531.745,192.307L528.862,191.141ZM517.746,186.653L515.713,189.825L521.711,191.911L523.416,188.941L522.023,188.378L517.746,186.653ZM504.848,181.461L502.625,185.014L509.287,187.342L511.146,183.994L506.244,182.021L504.848,181.461ZM488.886,175.06L486.231,179.403L493.851,182.035L496.033,177.999L489.071,175.134L488.886,175.06ZM468.929,173.101C470.767,173.793 472.599,174.483 474.422,175.171L477.596,176.249L480.098,171.667L471.896,168.4L468.929,173.101ZM446.114,164.562C449.644,165.876 453.166,167.191 456.673,168.503L459.256,163.889L449.083,159.796L446.114,164.562ZM422.825,155.941C426.835,157.417 430.857,158.902 434.886,160.393L437.776,155.26L426.176,150.662L422.825,155.941ZM401.464,140.647L397.631,146.736C402.394,148.463 407.207,150.216 412.05,151.988L415.271,145.99C410.639,144.19 406.031,142.406 401.464,140.647ZM373.713,130.062L369.56,136.658C374.77,138.508 380.102,140.414 385.513,142.36L389.001,135.864C383.815,133.883 378.711,131.946 373.713,130.062ZM344.487,119.243L340.019,126.339C345.313,128.153 350.848,130.072 356.576,132.079L360.344,125.061C354.857,123.024 349.555,121.077 344.487,119.243ZM210.27,114.501C208.249,115.072 206.338,115.628 204.557,116.16L205.806,121.145C209.133,120.167 212.723,119.197 216.587,118.254L215.168,113.891L210.27,114.501ZM237.878,107.555C232.965,108.638 228.127,109.792 223.533,110.953L224.888,116.363C229.571,115.369 234.6,114.423 239.99,113.549L238.034,107.536L237.878,107.555ZM259.507,103.451C255.612,104.049 251.606,104.756 247.581,105.539L249.243,112.172C255.067,111.381 261.263,110.677 267.848,110.086L265.449,102.712L259.507,103.451Z" style="fill:white;"/>
            </g>
            <g transform="matrix(-1,0,0,1,629.718,242.208)">
                <path d="M178.536,140.922C204.262,133.455 259.681,123.147 286.218,130.492C356.918,150.292 427.118,174.692 496.618,198.092C518.818,205.592 594.218,228.892 597.118,229.692C597.499,230.003 597.867,230.566 598.186,231.177C599.6,232.966 601.968,236.039 603.431,238.335C603.805,238.854 604.12,239.382 604.364,239.947C604.583,240.392 604.712,240.752 604.719,240.992L604.718,240.992L604.718,240.992L604.718,240.992L604.705,240.991C604.418,240.933 604.133,240.856 603.849,240.786L602.914,240.553C577.42,234.439 289.565,166.323 258.718,158.492C257.067,158.079 253.481,157.681 248.613,157.303C225.83,157.001 161.018,153.992 161.018,153.992C161.018,153.992 158.935,146.72 169.459,143.493C172.096,142.684 175.149,141.817 178.536,140.922ZM589.967,233.365L591.927,233.808L592.36,232.753L590.51,232.223L589.967,233.365ZM585.177,232.17L587.423,232.749L587.979,231.508L585.844,230.842L585.177,232.17ZM580.102,230.84L582.645,231.456L583.214,230.115L580.893,229.325L580.102,230.84ZM573.339,229.301L576.466,230.09L577.182,228.364L574.167,227.489L573.339,229.301ZM566.402,227.54L570.026,228.389L570.866,226.478L567.465,225.454L566.402,227.54ZM558.447,225.048L561.86,225.973L562.688,224.16L559.486,223.161L558.447,225.048ZM550.233,223.029L554.042,224.002L555.006,221.904L551.308,220.844L550.233,223.029ZM541.546,220.749L545.939,221.895L546.939,219.499L542.856,218.291L541.546,220.749ZM529.783,218.091L535.156,219.458L536.515,216.603L531.365,215.062L529.783,218.091ZM518.069,215.036L524.223,216.6L525.731,213.36L519.911,211.534L518.069,215.036ZM504.617,211.363L511.454,213.112L513.122,209.388L506.607,207.477L504.617,211.363ZM487.803,207.175L495.62,209.146L497.449,204.938L490.077,202.619L487.803,207.175ZM469.933,202.556L478.93,204.772L481.03,199.993L472.579,197.441L469.933,202.556ZM446.202,196.531L457.154,199.435L459.599,194.028L449.112,190.821L446.202,196.531ZM422.142,190.149L434.64,193.464L437.459,187.27L425.508,183.681L422.142,190.149ZM396.189,183.266L405.187,185.652L411.111,187.223L414.324,179.77L400.139,175.606L396.189,183.266ZM367.362,175.621L375.321,177.731L383.812,179.983L387.386,171.694L371.754,167.106L367.362,175.621ZM337.174,167.622L347.306,170.306L354.144,172.118L357.865,163.487L341.746,158.756L337.174,167.622ZM306.466,159.501C311.962,160.952 317.923,162.527 324.27,164.206L328.359,154.723L311.485,149.77L306.466,159.501ZM182.566,150.238L181,145.424L172.057,146.537L173.223,151.192C175.992,150.868 179.139,150.547 182.566,150.238ZM201.114,148.872L199.168,142.891L188.327,144.24L189.681,149.648C193.317,149.369 197.157,149.108 201.114,148.872ZM223.077,139.669C221.395,139.826 219.709,139.99 218.025,140.159L208.141,141.389L209.897,148.4C215.149,148.15 220.488,147.951 225.729,147.821L223.077,139.669ZM251.149,137.863C245.536,137.976 239.234,138.335 232.658,138.845L234.867,147.666C238.178,147.638 241.4,147.643 244.483,147.688L254.112,146.972L251.149,137.863Z" style="fill:white;"/>
            </g>
            <path d="M273.9,348.1L262.4,313.5L269.9,311.4L303.4,336.7" style="fill:white;"/>
            <path d="M102.9,373.9L86,381L89.2,406.4L138.5,385.4L102.9,373.9Z" style="fill:white;"/>
            <path d="M168.9,388.1C165,387.5 155.9,387.8 154,388.1C142.7,389.6 85.7,412.7 80,416.6C75.7,419.6 73.5,427.1 73.5,427.1C73.5,427.1 172.8,388.7 168.9,388.1Z" style="fill:white;"/>
            <path d="M212.2,371.4C212.2,371.4 211.3,360.2 219.6,356.6C228,353 238.5,361.4 238.5,361.4L212.2,371.4Z" style="fill:white;"/>
            <path d="M180.6,383.6C180.6,383.6 179.6,372.4 188,368.8C196.4,365.2 206.9,373.6 206.9,373.6L180.6,383.6Z" style="fill:white;"/>
            <path d="M490.9,530.3C381.1,530.3 50.8,531.2 40.3,526.7C30,522.2 15.7,506.9 13.7,489.7C37,484.7 306.6,433.9 312,433C319.4,430.9 330.1,421.9 336.6,418.8C355.8,409.5 522.4,398.1 577.7,397.2C578.3,397.2 578.9,397.3 579.5,397.6C581.4,398.5 582.2,400.9 581.2,402.8C523.1,518.8 506.9,532.2 490.9,530.3ZM41.6,496.7L39.6,496.9L39.3,495.8L41.2,495.5L41.6,496.7ZM46.5,496.1L44.2,496.4L43.8,495.1L46,494.7L46.5,496.1ZM51.7,495.4L49.1,495.7L48.7,494.3L51.1,493.8L51.7,495.4ZM58.6,494.7L55.4,495.1L54.9,493.3L58,492.8L58.6,494.7ZM65.7,493.8L62,494.2L61.4,492.2L64.9,491.6L65.7,493.8ZM73.9,492.3L70.4,492.8L69.8,490.9L73.1,490.3L73.9,492.3ZM82.3,491.3L78.4,491.8L77.7,489.6L81.5,489L82.3,491.3ZM91.2,490.1L86.7,490.7L86,488.2L90.2,487.5L91.2,490.1ZM103.2,488.9L97.7,489.6L96.7,486.6L102,485.7L103.2,488.9ZM115.2,487.3L108.9,488.1L107.8,484.7L113.8,483.6L115.2,487.3ZM129,485.3L122,486.2L120.8,482.3L127.5,481.2L129,485.3ZM146.2,483.2L138.2,484.2L136.9,479.8L144.5,478.4L146.2,483.2ZM164.5,480.8L155.3,481.9L153.8,476.9L162.5,475.4L164.5,480.8ZM189,478.3L177.7,479.7L175.8,473.6L186.6,471.7L189,478.3ZM213.7,475L200.8,476.6L198.6,469.6L210.9,467.5L213.7,475ZM227.4,472.5L225.1,465.1L307.7,451.4L299.2,462.4L227.4,472.5Z" style="fill:white;"/>
        </g>
        <g transform="matrix(1.33085,0,0,1.59884,-102.085,-95.0618)">
            <path d="M120.122,285.81C124.908,287.62 129.75,287.257 134.834,285.774C141.008,283.973 147.629,279.772 155.535,279.842C166.305,279.937 184.384,285.766 190.668,286.221C203.219,287.128 218.812,283.457 230.4,281.197C246.514,278.054 266.139,276.763 281.84,279.721C292.054,281.645 305.16,284.176 316.483,284.379C328.864,284.602 334.071,281.188 343.744,279.768C357.28,277.781 369.964,278.69 383.885,279.819C398.849,281.033 421.722,286.34 437.166,285.447C445.105,284.988 452.255,282.048 459.379,279.225C464.853,277.057 470.295,274.899 476.43,275.311C486.667,276 497.507,278.928 507.74,279.816C519.335,280.822 532.013,276.205 543.15,275.131C546.701,274.789 550.158,276.264 554.086,277.354C562.684,279.738 572.675,281.534 586.42,274.319C589.841,272.523 591.16,268.288 589.364,264.867C587.568,261.446 583.333,260.127 579.912,261.923C570.53,266.849 563.697,265.491 557.828,263.863C552.11,262.277 546.974,260.697 541.806,261.196C531.459,262.193 519.724,266.803 508.95,265.868C498.629,264.973 487.694,262.037 477.369,261.343C469.074,260.785 461.623,263.278 454.222,266.21C448.471,268.488 442.767,271.099 436.357,271.47C421.47,272.331 399.441,267.035 385.017,265.865C369.998,264.647 356.314,263.773 341.711,265.916C332.834,267.219 328.096,270.586 316.734,270.382C306.173,270.192 293.958,267.757 284.432,265.963C267.122,262.702 245.484,263.991 227.72,267.456C217.198,269.508 203.073,273.081 191.677,272.257C185.239,271.791 166.693,265.94 155.659,265.842C155.187,265.838 154.719,265.845 154.254,265.862C153.09,264.462 150.857,262.895 146.734,262.496C145.277,262.354 143.598,261.491 141.737,260.465C137.812,258.301 133.485,255.191 129.426,252.549C123.507,248.694 117.818,246.084 114.027,246.218C107.797,246.439 104.81,248.202 103.091,250.208C101.787,251.731 100.976,253.639 100.655,256.153C100.422,257.974 100.492,260.368 100.235,263.444C99.178,276.102 109.692,284.433 120.122,285.81Z" style="fill:rgb(210,235,235);"/>
        </g>
        <g transform="matrix(1.26477,0,0,1.51338,-228.065,-917.392)">
            <path d="M151.85,579.523C154.517,579.523 157.215,580.017 159.944,581.007C162.673,581.997 164.194,582.491 164.506,582.491C165.319,582.491 165.97,582.179 166.459,581.554C166.949,580.929 167.256,580.273 167.381,579.585L169.163,579.585L169.163,594.554L167.538,594.554C165.996,591.304 164.423,588.741 162.819,586.866C159.819,583.408 156.423,581.679 152.631,581.679C148.34,581.679 145.293,583.528 143.491,587.226C141.689,590.924 140.788,595.887 140.788,602.116C140.788,606.7 141.319,610.471 142.381,613.429C144.361,618.971 148.038,621.741 153.413,621.741C156.704,621.741 159.767,620.825 162.6,618.991C164.225,617.929 166.142,616.231 168.35,613.898L170.256,615.46C167.756,618.252 165.558,620.273 163.663,621.523C160.288,623.752 156.538,624.866 152.413,624.866C146.1,624.866 140.808,622.991 136.538,619.241C131.808,615.096 129.444,609.512 129.444,602.491C129.444,595.533 131.704,589.898 136.225,585.585C140.475,581.543 145.683,579.523 151.85,579.523Z" style="fill:white;fill-rule:nonzero;"/>
            <path d="M173.6,622.554C175.517,622.387 176.788,622.049 177.413,621.538C178.038,621.028 178.35,619.939 178.35,618.273L178.35,604.179C178.35,602.116 178.157,600.642 177.772,599.757C177.387,598.872 176.683,598.429 175.663,598.429C175.454,598.429 175.178,598.455 174.834,598.507C174.491,598.559 174.131,598.627 173.756,598.71L173.756,597.679C174.944,597.262 176.163,596.835 177.413,596.398C178.663,595.96 179.527,595.648 180.006,595.46C181.048,595.064 182.121,594.616 183.225,594.116C183.371,594.116 183.459,594.168 183.491,594.273C183.522,594.377 183.538,594.596 183.538,594.929L183.538,600.054C184.871,598.2 186.157,596.752 187.397,595.71C188.637,594.668 189.923,594.148 191.256,594.148C192.319,594.148 193.183,594.465 193.85,595.101C194.517,595.736 194.85,596.533 194.85,597.491C194.85,598.346 194.595,599.064 194.084,599.648C193.574,600.231 192.933,600.523 192.163,600.523C191.371,600.523 190.574,600.158 189.772,599.429C188.97,598.7 188.34,598.335 187.881,598.335C187.152,598.335 186.256,598.924 185.194,600.101C184.131,601.278 183.6,602.491 183.6,603.741L183.6,617.835C183.6,619.627 184.017,620.872 184.85,621.57C185.683,622.267 187.069,622.596 189.006,622.554L189.006,623.585L173.6,623.585L173.6,622.554Z" style="fill:white;fill-rule:nonzero;"/>
            <path d="M204.538,594.648L204.538,614.648C204.538,616.064 204.736,617.2 205.131,618.054C205.902,619.637 207.319,620.429 209.381,620.429C210.798,620.429 212.183,619.96 213.538,619.023C214.308,618.502 215.09,617.783 215.881,616.866L215.881,599.741C215.881,598.137 215.569,597.085 214.944,596.585C214.319,596.085 213.069,595.783 211.194,595.679L211.194,594.648L221.288,594.648L221.288,616.648C221.288,618.064 221.543,619.038 222.053,619.57C222.564,620.101 223.642,620.335 225.288,620.273L225.288,621.148C224.142,621.46 223.298,621.695 222.756,621.851C222.215,622.007 221.308,622.293 220.038,622.71C219.496,622.898 218.308,623.346 216.475,624.054C216.371,624.054 216.308,624.007 216.288,623.913C216.267,623.82 216.256,623.71 216.256,623.585L216.256,618.554C214.84,620.241 213.548,621.491 212.381,622.304C210.611,623.554 208.736,624.179 206.756,624.179C204.944,624.179 203.236,623.533 201.631,622.241C200.006,620.971 199.194,618.835 199.194,615.835L199.194,599.616C199.194,597.95 198.84,596.835 198.131,596.273C197.673,595.918 196.694,595.668 195.194,595.523L195.194,594.648L204.538,594.648Z" style="fill:white;fill-rule:nonzero;"/>
            <path d="M231.881,583.241C231.881,582.346 232.194,581.575 232.819,580.929C233.444,580.283 234.215,579.96 235.131,579.96C236.027,579.96 236.793,580.278 237.428,580.913C238.064,581.549 238.381,582.325 238.381,583.241C238.381,584.137 238.064,584.903 237.428,585.538C236.793,586.174 236.027,586.491 235.131,586.491C234.215,586.491 233.444,586.174 232.819,585.538C232.194,584.903 231.881,584.137 231.881,583.241ZM227.881,622.71C230.111,622.502 231.517,622.122 232.1,621.57C232.683,621.017 232.975,619.523 232.975,617.085L232.975,602.179C232.975,600.825 232.881,599.887 232.694,599.366C232.381,598.512 231.725,598.085 230.725,598.085C230.496,598.085 230.272,598.106 230.053,598.148C229.834,598.189 229.204,598.356 228.163,598.648L228.163,597.679L229.506,597.241C233.152,596.054 235.694,595.158 237.131,594.554C237.715,594.304 238.09,594.179 238.256,594.179C238.298,594.325 238.319,594.481 238.319,594.648L238.319,617.085C238.319,619.46 238.605,620.95 239.178,621.554C239.751,622.158 241.048,622.543 243.069,622.71L243.069,623.585L227.881,623.585L227.881,622.71Z" style="fill:white;fill-rule:nonzero;"/>
            <path d="M247.725,613.741L248.756,613.741C249.236,616.116 249.881,617.939 250.694,619.21C252.152,621.543 254.288,622.71 257.1,622.71C258.663,622.71 259.897,622.278 260.803,621.413C261.709,620.549 262.163,619.429 262.163,618.054C262.163,617.179 261.902,616.335 261.381,615.523C260.861,614.71 259.944,613.918 258.631,613.148L255.131,611.148C252.569,609.773 250.683,608.387 249.475,606.991C248.267,605.596 247.663,603.95 247.663,602.054C247.663,599.721 248.496,597.804 250.163,596.304C251.829,594.804 253.923,594.054 256.444,594.054C257.548,594.054 258.762,594.262 260.084,594.679C261.407,595.096 262.152,595.304 262.319,595.304C262.694,595.304 262.965,595.252 263.131,595.148C263.298,595.043 263.444,594.877 263.569,594.648L264.319,594.648L264.538,603.366L263.569,603.366C263.152,601.346 262.59,599.773 261.881,598.648C260.59,596.564 258.725,595.523 256.288,595.523C254.829,595.523 253.683,595.971 252.85,596.866C252.017,597.762 251.6,598.814 251.6,600.023C251.6,601.939 253.038,603.648 255.913,605.148L260.038,607.366C264.475,609.783 266.694,612.596 266.694,615.804C266.694,618.262 265.772,620.273 263.928,621.835C262.084,623.398 259.673,624.179 256.694,624.179C255.444,624.179 254.027,623.971 252.444,623.554C250.861,623.137 249.923,622.929 249.631,622.929C249.381,622.929 249.163,623.017 248.975,623.195C248.788,623.372 248.642,623.585 248.538,623.835L247.725,623.835L247.725,613.741Z" style="fill:white;fill-rule:nonzero;"/>
            <path d="M283.975,594.273C286.913,594.273 289.486,595.288 291.694,597.32C293.902,599.351 295.006,602.231 295.006,605.96L275.163,605.96C275.371,610.793 276.465,614.314 278.444,616.523C280.423,618.731 282.767,619.835 285.475,619.835C287.663,619.835 289.506,619.262 291.006,618.116C292.506,616.971 293.892,615.346 295.163,613.241L296.256,613.616C295.402,616.262 293.803,618.71 291.459,620.96C289.116,623.21 286.246,624.335 282.85,624.335C278.933,624.335 275.907,622.856 273.772,619.898C271.637,616.939 270.569,613.533 270.569,609.679C270.569,605.491 271.808,601.877 274.288,598.835C276.767,595.793 279.996,594.273 283.975,594.273ZM282.163,596.554C279.788,596.554 277.975,597.606 276.725,599.71C276.058,600.835 275.579,602.252 275.288,603.96L288.475,603.96C288.246,601.877 287.85,600.325 287.288,599.304C286.267,597.471 284.558,596.554 282.163,596.554Z" style="fill:white;fill-rule:nonzero;"/>
        </g>
        <g transform="matrix(1.33085,0,0,1.59884,-90.6653,-841.118)">
            <path d="M111.189,644.599C110.109,644.599 109.341,644.689 108.885,644.869C108.429,645.049 108.141,645.307 108.021,645.643L99.021,669.223L93.801,669.223L85.161,645.679C85.017,645.319 84.681,645.049 84.153,644.869C83.625,644.689 82.977,644.599 82.209,644.599L82.209,642.475L95.349,642.475L95.349,644.599L92.181,644.599C91.485,644.599 91.137,644.803 91.137,645.211C91.137,645.355 91.173,645.511 91.245,645.679L98.157,664.903L105.069,645.967C105.141,645.799 105.177,645.631 105.177,645.463C105.177,644.887 104.637,644.599 103.557,644.599L101.325,644.599L101.325,642.475L111.153,642.475L111.189,644.599Z" style="fill:rgb(0,0,58);fill-rule:nonzero;"/>
            <path d="M128.037,665.695C128.037,666.751 128.397,667.279 129.117,667.279C129.453,667.279 129.705,667.117 129.873,666.793C130.041,666.469 130.125,666.103 130.125,665.695L130.125,663.571L131.817,663.571L131.817,665.191C131.817,665.983 131.721,666.655 131.529,667.207C131.337,667.759 131.061,668.203 130.701,668.539C130.341,668.875 129.915,669.115 129.423,669.259C128.931,669.403 128.397,669.475 127.821,669.475C127.173,669.475 126.621,669.373 126.165,669.169C125.709,668.965 125.325,668.695 125.013,668.359C124.701,668.023 124.461,667.639 124.293,667.207C124.125,666.775 123.993,666.319 123.897,665.839C123.633,666.367 123.267,666.871 122.799,667.351C122.331,667.831 121.773,668.257 121.125,668.629C120.477,669.001 119.745,669.295 118.929,669.511C118.113,669.727 117.237,669.835 116.301,669.835C114.045,669.835 112.395,669.373 111.351,668.449C110.307,667.525 109.785,666.271 109.785,664.687C109.785,663.727 109.971,662.929 110.343,662.293C110.715,661.657 111.231,661.123 111.891,660.691C112.551,660.259 113.319,659.917 114.195,659.665C115.071,659.413 116.007,659.185 117.003,658.981C117.999,658.777 119.031,658.579 120.099,658.387C121.167,658.195 122.229,657.955 123.285,657.667L123.285,656.551C123.285,655.951 123.207,655.387 123.051,654.859C122.895,654.331 122.643,653.869 122.295,653.473C121.947,653.077 121.509,652.765 120.981,652.537C120.453,652.309 119.829,652.195 119.109,652.195C117.885,652.195 116.859,652.315 116.031,652.555C115.203,652.795 114.537,653.119 114.033,653.527C114.585,653.575 115.053,653.755 115.437,654.067C115.821,654.379 116.013,654.823 116.013,655.399C116.013,656.071 115.797,656.617 115.365,657.037C114.933,657.457 114.297,657.667 113.457,657.667C112.617,657.667 111.987,657.445 111.567,657.001C111.147,656.557 110.937,655.939 110.937,655.147C110.937,654.547 111.129,653.947 111.513,653.347C111.897,652.747 112.449,652.213 113.169,651.745C113.889,651.277 114.783,650.899 115.851,650.611C116.919,650.323 118.137,650.179 119.505,650.179C120.609,650.179 121.677,650.281 122.709,650.485C123.741,650.689 124.653,651.037 125.445,651.529C126.237,652.021 126.867,652.693 127.335,653.545C127.803,654.397 128.037,655.471 128.037,656.767L128.037,665.695ZM123.321,659.071C121.785,659.455 120.453,659.809 119.325,660.133C118.197,660.457 117.261,660.805 116.517,661.177C115.773,661.549 115.221,661.975 114.861,662.455C114.501,662.935 114.321,663.535 114.321,664.255C114.321,665.119 114.621,665.791 115.221,666.271C115.821,666.751 116.733,666.991 117.957,666.991C119.181,666.991 120.267,666.697 121.215,666.109C122.163,665.521 122.865,664.843 123.321,664.075L123.321,659.071Z" style="fill:rgb(0,0,58);fill-rule:nonzero;"/>
            <path d="M152.481,662.959C152.337,663.823 152.079,664.663 151.707,665.479C151.335,666.295 150.825,667.027 150.177,667.675C149.529,668.323 148.725,668.845 147.765,669.241C146.805,669.637 145.665,669.835 144.345,669.835C142.905,669.835 141.579,669.643 140.367,669.259C139.155,668.875 138.111,668.293 137.235,667.513C136.359,666.733 135.675,665.743 135.183,664.543C134.691,663.343 134.445,661.915 134.445,660.259C134.445,657.067 135.321,654.589 137.073,652.825C138.825,651.061 141.249,650.179 144.345,650.179C145.497,650.179 146.553,650.311 147.513,650.575C148.473,650.839 149.307,651.205 150.015,651.673C150.723,652.141 151.275,652.693 151.671,653.329C152.067,653.965 152.265,654.655 152.265,655.399C152.265,656.167 152.049,656.797 151.617,657.289C151.185,657.781 150.549,658.027 149.709,658.027C148.917,658.027 148.305,657.805 147.873,657.361C147.441,656.917 147.225,656.383 147.225,655.759C147.225,655.207 147.423,654.733 147.819,654.337C148.215,653.941 148.701,653.719 149.277,653.671C148.869,653.215 148.347,652.855 147.711,652.591C147.075,652.327 146.217,652.195 145.137,652.195C143.265,652.195 141.831,652.819 140.835,654.067C139.839,655.315 139.341,657.175 139.341,659.647C139.341,661.039 139.479,662.233 139.755,663.229C140.031,664.225 140.421,665.035 140.925,665.659C141.429,666.283 142.023,666.745 142.707,667.045C143.391,667.345 144.129,667.495 144.921,667.495C145.545,667.495 146.151,667.405 146.739,667.225C147.327,667.045 147.861,666.763 148.341,666.379C148.821,665.995 149.223,665.503 149.547,664.903C149.871,664.303 150.093,663.571 150.213,662.707L152.481,662.959Z" style="fill:rgb(0,0,58);fill-rule:nonzero;"/>
            <path d="M173.541,665.695C173.541,666.751 173.901,667.279 174.621,667.279C174.957,667.279 175.209,667.117 175.377,666.793C175.545,666.469 175.629,666.103 175.629,665.695L175.629,663.571L177.321,663.571L177.321,665.191C177.321,665.983 177.225,666.655 177.033,667.207C176.841,667.759 176.565,668.203 176.205,668.539C175.845,668.875 175.419,669.115 174.927,669.259C174.435,669.403 173.901,669.475 173.325,669.475C172.677,669.475 172.125,669.373 171.669,669.169C171.213,668.965 170.829,668.695 170.517,668.359C170.205,668.023 169.965,667.639 169.797,667.207C169.629,666.775 169.497,666.319 169.401,665.839C169.137,666.367 168.771,666.871 168.303,667.351C167.835,667.831 167.277,668.257 166.629,668.629C165.981,669.001 165.249,669.295 164.433,669.511C163.617,669.727 162.741,669.835 161.805,669.835C159.549,669.835 157.899,669.373 156.855,668.449C155.811,667.525 155.289,666.271 155.289,664.687C155.289,663.727 155.475,662.929 155.847,662.293C156.219,661.657 156.735,661.123 157.395,660.691C158.055,660.259 158.823,659.917 159.699,659.665C160.575,659.413 161.511,659.185 162.507,658.981C163.503,658.777 164.535,658.579 165.603,658.387C166.671,658.195 167.733,657.955 168.789,657.667L168.789,656.551C168.789,655.951 168.711,655.387 168.555,654.859C168.399,654.331 168.147,653.869 167.799,653.473C167.451,653.077 167.013,652.765 166.485,652.537C165.957,652.309 165.333,652.195 164.613,652.195C163.389,652.195 162.363,652.315 161.535,652.555C160.707,652.795 160.041,653.119 159.537,653.527C160.089,653.575 160.557,653.755 160.941,654.067C161.325,654.379 161.517,654.823 161.517,655.399C161.517,656.071 161.301,656.617 160.869,657.037C160.437,657.457 159.801,657.667 158.961,657.667C158.121,657.667 157.491,657.445 157.071,657.001C156.651,656.557 156.441,655.939 156.441,655.147C156.441,654.547 156.633,653.947 157.017,653.347C157.401,652.747 157.953,652.213 158.673,651.745C159.393,651.277 160.287,650.899 161.355,650.611C162.423,650.323 163.641,650.179 165.009,650.179C166.113,650.179 167.181,650.281 168.213,650.485C169.245,650.689 170.157,651.037 170.949,651.529C171.741,652.021 172.371,652.693 172.839,653.545C173.307,654.397 173.541,655.471 173.541,656.767L173.541,665.695ZM168.825,659.071C167.289,659.455 165.957,659.809 164.829,660.133C163.701,660.457 162.765,660.805 162.021,661.177C161.277,661.549 160.725,661.975 160.365,662.455C160.005,662.935 159.825,663.535 159.825,664.255C159.825,665.119 160.125,665.791 160.725,666.271C161.325,666.751 162.237,666.991 163.461,666.991C164.685,666.991 165.771,666.697 166.719,666.109C167.667,665.521 168.369,664.843 168.825,664.075L168.825,659.071Z" style="fill:rgb(0,0,58);fill-rule:nonzero;"/>
            <path d="M186.681,650.899L191.469,650.899L191.289,653.491C190.617,653.347 189.903,653.245 189.147,653.185C188.391,653.125 187.569,653.095 186.681,653.095L186.681,665.659C186.681,666.739 187.209,667.279 188.265,667.279C188.817,667.279 189.195,667.129 189.399,666.829C189.603,666.529 189.705,666.139 189.705,665.659L189.705,663.571L191.469,663.571L191.469,665.155C191.469,665.803 191.403,666.391 191.271,666.919C191.139,667.447 190.899,667.897 190.551,668.269C190.203,668.641 189.741,668.935 189.165,669.151C188.589,669.367 187.857,669.475 186.969,669.475C185.097,669.475 183.759,669.055 182.955,668.215C182.151,667.375 181.749,666.199 181.749,664.687L181.749,653.095L178.617,653.095L178.617,651.367C179.289,651.319 179.919,651.223 180.507,651.079C181.095,650.935 181.611,650.683 182.055,650.323C182.499,649.963 182.847,649.459 183.099,648.811C183.351,648.163 183.477,647.323 183.477,646.291L183.477,645.499L186.681,645.247L186.681,650.899Z" style="fill:rgb(0,0,58);fill-rule:nonzero;"/>
            <path d="M202.197,665.551C202.149,666.631 203.193,667.171 205.329,667.171L205.329,669.223L194.169,669.223L194.169,667.171C196.233,667.171 197.265,666.631 197.265,665.551L197.265,654.607C197.265,653.503 196.233,652.951 194.169,652.951L194.169,650.899L202.197,650.899L202.197,665.551ZM202.629,644.851C202.629,645.691 202.335,646.417 201.747,647.029C201.159,647.641 200.433,647.947 199.569,647.947C199.137,647.947 198.735,647.863 198.363,647.695C197.991,647.527 197.667,647.305 197.391,647.029C197.115,646.753 196.893,646.429 196.725,646.057C196.557,645.685 196.473,645.283 196.473,644.851C196.473,643.987 196.779,643.261 197.391,642.673C198.003,642.085 198.729,641.791 199.569,641.791C200.409,641.791 201.129,642.091 201.729,642.691C202.329,643.291 202.629,644.011 202.629,644.851Z" style="fill:rgb(0,0,58);fill-rule:nonzero;"/>
            <path d="M228.045,659.971C228.045,663.115 227.181,665.545 225.453,667.261C223.725,668.977 221.217,669.835 217.929,669.835C216.633,669.835 215.397,669.685 214.221,669.385C213.045,669.085 212.019,668.569 211.143,667.837C210.267,667.105 209.565,666.133 209.037,664.921C208.509,663.709 208.245,662.203 208.245,660.403C208.245,657.115 209.073,654.589 210.729,652.825C212.385,651.061 214.917,650.179 218.325,650.179C219.645,650.179 220.899,650.341 222.087,650.665C223.275,650.989 224.307,651.529 225.183,652.285C226.059,653.041 226.755,654.043 227.271,655.291C227.787,656.539 228.045,658.099 228.045,659.971ZM218.289,652.555C216.489,652.555 215.181,653.137 214.365,654.301C213.549,655.465 213.141,657.139 213.141,659.323C213.141,660.955 213.249,662.299 213.465,663.355C213.681,664.411 213.999,665.245 214.419,665.857C214.839,666.469 215.343,666.895 215.931,667.135C216.519,667.375 217.197,667.495 217.965,667.495C219.861,667.495 221.193,666.859 221.961,665.587C222.729,664.315 223.113,662.515 223.113,660.187C223.113,658.675 222.999,657.427 222.771,656.443C222.543,655.459 222.213,654.679 221.781,654.103C221.349,653.527 220.839,653.125 220.251,652.897C219.663,652.669 219.009,652.555 218.289,652.555Z" style="fill:rgb(0,0,58);fill-rule:nonzero;"/>
            <path d="M252.525,665.551C252.525,666.631 253.581,667.171 255.693,667.171L255.693,669.223L245.217,669.223L245.217,667.171C246.825,667.171 247.629,666.631 247.629,665.551L247.629,657.559C247.629,656.047 247.389,654.967 246.909,654.319C246.429,653.671 245.781,653.347 244.965,653.347C244.341,653.347 243.723,653.467 243.111,653.707C242.499,653.947 241.917,654.283 241.365,654.715C240.813,655.147 240.309,655.657 239.853,656.245C239.397,656.833 239.025,657.463 238.737,658.135L238.737,665.551C238.737,666.631 239.541,667.171 241.149,667.171L241.149,669.223L230.709,669.223L230.709,667.171C232.773,667.171 233.805,666.631 233.805,665.551L233.805,654.571C233.805,653.491 232.773,652.951 230.709,652.951L230.709,650.899L238.737,650.899L238.737,654.571C239.649,653.395 240.789,652.429 242.157,651.673C243.525,650.917 245.085,650.539 246.837,650.539C248.637,650.539 250.035,650.959 251.031,651.799C252.027,652.639 252.525,654.007 252.525,655.903L252.525,665.551Z" style="fill:rgb(0,0,58);fill-rule:nonzero;"/>
        </g>
        <g transform="matrix(1.33085,0,0,1.59884,-184.799,-822.881)">
            <path d="M183.939,678.684L186.051,678.684C185.971,677.948 185.779,677.312 185.475,676.776C185.171,676.24 184.783,675.796 184.311,675.444C183.839,675.092 183.295,674.832 182.679,674.664C182.063,674.496 181.403,674.412 180.699,674.412C179.723,674.412 178.867,674.584 178.131,674.928C177.395,675.272 176.783,675.744 176.295,676.344C175.807,676.944 175.443,677.648 175.203,678.456C174.963,679.264 174.843,680.132 174.843,681.06C174.843,681.988 174.967,682.84 175.215,683.616C175.463,684.392 175.831,685.06 176.319,685.62C176.807,686.18 177.415,686.612 178.143,686.916C178.871,687.22 179.707,687.372 180.651,687.372C182.235,687.372 183.487,686.956 184.407,686.124C185.327,685.292 185.899,684.108 186.123,682.572L184.035,682.572C183.907,683.532 183.559,684.276 182.991,684.804C182.423,685.332 181.635,685.596 180.627,685.596C179.987,685.596 179.435,685.468 178.971,685.212C178.507,684.956 178.131,684.616 177.843,684.192C177.555,683.768 177.343,683.284 177.207,682.74C177.071,682.196 177.003,681.636 177.003,681.06C177.003,680.436 177.067,679.832 177.195,679.248C177.323,678.664 177.535,678.148 177.831,677.7C178.127,677.252 178.523,676.892 179.019,676.62C179.515,676.348 180.131,676.212 180.867,676.212C181.731,676.212 182.419,676.428 182.931,676.86C183.443,677.292 183.779,677.9 183.939,678.684Z" style="fill:rgb(0,0,58);fill-rule:nonzero;"/>
            <path d="M188.331,674.7L188.331,687.108L190.371,687.108L190.371,681.588C190.371,680.788 190.451,680.08 190.611,679.464C190.771,678.848 191.027,678.324 191.379,677.892C191.731,677.46 192.195,677.132 192.771,676.908C193.347,676.684 194.043,676.572 194.859,676.572L194.859,674.412C193.755,674.38 192.843,674.604 192.123,675.084C191.403,675.564 190.795,676.308 190.299,677.316L190.251,677.316L190.251,674.7L188.331,674.7Z" style="fill:rgb(0,0,58);fill-rule:nonzero;"/>
            <path d="M206.667,687.108L206.667,674.7L204.627,674.7L204.627,681.708C204.627,682.268 204.551,682.784 204.399,683.256C204.247,683.728 204.019,684.14 203.715,684.492C203.411,684.844 203.031,685.116 202.575,685.308C202.119,685.5 201.579,685.596 200.955,685.596C200.171,685.596 199.555,685.372 199.107,684.924C198.659,684.476 198.435,683.868 198.435,683.1L198.435,674.7L196.395,674.7L196.395,682.86C196.395,683.532 196.463,684.144 196.599,684.696C196.735,685.248 196.971,685.724 197.307,686.124C197.643,686.524 198.083,686.832 198.627,687.048C199.171,687.264 199.851,687.372 200.667,687.372C201.579,687.372 202.371,687.192 203.043,686.832C203.715,686.472 204.267,685.908 204.699,685.14L204.747,685.14L204.747,687.108L206.667,687.108Z" style="fill:rgb(0,0,58);fill-rule:nonzero;"/>
            <path d="M211.899,672.468L211.899,669.972L209.859,669.972L209.859,672.468L211.899,672.468ZM209.859,674.7L209.859,687.108L211.899,687.108L211.899,674.7L209.859,674.7Z" style="fill:rgb(0,0,58);fill-rule:nonzero;"/>
            <path d="M216.315,683.196L214.275,683.196C214.307,683.964 214.467,684.616 214.755,685.152C215.043,685.688 215.427,686.12 215.907,686.448C216.387,686.776 216.939,687.012 217.563,687.156C218.187,687.3 218.843,687.372 219.531,687.372C220.155,687.372 220.783,687.312 221.415,687.192C222.047,687.072 222.615,686.86 223.119,686.556C223.623,686.252 224.031,685.852 224.343,685.356C224.655,684.86 224.811,684.236 224.811,683.484C224.811,682.892 224.695,682.396 224.463,681.996C224.231,681.596 223.927,681.264 223.551,681C223.175,680.736 222.743,680.524 222.255,680.364C221.767,680.204 221.267,680.068 220.755,679.956C220.275,679.844 219.795,679.736 219.315,679.632C218.835,679.528 218.403,679.4 218.019,679.248C217.635,679.096 217.319,678.904 217.071,678.672C216.823,678.44 216.699,678.148 216.699,677.796C216.699,677.476 216.779,677.216 216.939,677.016C217.099,676.816 217.307,676.656 217.563,676.536C217.819,676.416 218.103,676.332 218.415,676.284C218.727,676.236 219.035,676.212 219.339,676.212C219.675,676.212 220.007,676.248 220.335,676.32C220.663,676.392 220.963,676.508 221.235,676.668C221.507,676.828 221.731,677.04 221.907,677.304C222.083,677.568 222.187,677.9 222.219,678.3L224.259,678.3C224.211,677.548 224.051,676.92 223.779,676.416C223.507,675.912 223.143,675.512 222.687,675.216C222.231,674.92 221.707,674.712 221.115,674.592C220.523,674.472 219.875,674.412 219.171,674.412C218.627,674.412 218.079,674.48 217.527,674.616C216.975,674.752 216.479,674.96 216.039,675.24C215.599,675.52 215.239,675.884 214.959,676.332C214.679,676.78 214.539,677.316 214.539,677.94C214.539,678.74 214.739,679.364 215.139,679.812C215.539,680.26 216.039,680.608 216.639,680.856C217.239,681.104 217.891,681.296 218.595,681.432C219.299,681.568 219.951,681.72 220.551,681.888C221.151,682.056 221.651,682.276 222.051,682.548C222.451,682.82 222.651,683.22 222.651,683.748C222.651,684.132 222.555,684.448 222.363,684.696C222.171,684.944 221.927,685.132 221.631,685.26C221.335,685.388 221.011,685.476 220.659,685.524C220.307,685.572 219.971,685.596 219.651,685.596C219.235,685.596 218.831,685.556 218.439,685.476C218.047,685.396 217.695,685.264 217.383,685.08C217.071,684.896 216.819,684.648 216.627,684.336C216.435,684.024 216.331,683.644 216.315,683.196Z" style="fill:rgb(0,0,58);fill-rule:nonzero;"/>
            <path d="M229.227,672.468L229.227,669.972L227.187,669.972L227.187,672.468L229.227,672.468ZM227.187,674.7L227.187,687.108L229.227,687.108L229.227,674.7L227.187,674.7Z" style="fill:rgb(0,0,58);fill-rule:nonzero;"/>
            <path d="M232.395,674.7L232.395,687.108L234.435,687.108L234.435,680.1C234.435,679.54 234.511,679.024 234.663,678.552C234.815,678.08 235.043,677.668 235.347,677.316C235.651,676.964 236.031,676.692 236.487,676.5C236.943,676.308 237.483,676.212 238.107,676.212C238.891,676.212 239.507,676.436 239.955,676.884C240.403,677.332 240.627,677.94 240.627,678.708L240.627,687.108L242.667,687.108L242.667,678.948C242.667,678.276 242.599,677.664 242.463,677.112C242.327,676.56 242.091,676.084 241.755,675.684C241.419,675.284 240.979,674.972 240.435,674.748C239.891,674.524 239.211,674.412 238.395,674.412C236.555,674.412 235.211,675.164 234.363,676.668L234.315,676.668L234.315,674.7L232.395,674.7Z" style="fill:rgb(0,0,58);fill-rule:nonzero;"/>
            <path d="M256.443,686.052L256.443,674.7L254.523,674.7L254.523,676.476L254.499,676.476C254.131,675.788 253.619,675.272 252.963,674.928C252.307,674.584 251.587,674.412 250.803,674.412C249.731,674.412 248.827,674.616 248.091,675.024C247.355,675.432 246.763,675.952 246.315,676.584C245.867,677.216 245.547,677.92 245.355,678.696C245.163,679.472 245.067,680.228 245.067,680.964C245.067,681.812 245.183,682.616 245.415,683.376C245.647,684.136 245.995,684.8 246.459,685.368C246.923,685.936 247.499,686.388 248.187,686.724C248.875,687.06 249.683,687.228 250.611,687.228C251.411,687.228 252.167,687.048 252.879,686.688C253.591,686.328 254.123,685.764 254.475,684.996L254.523,684.996L254.523,685.812C254.523,686.5 254.455,687.132 254.319,687.708C254.183,688.284 253.963,688.776 253.659,689.184C253.355,689.592 252.971,689.912 252.507,690.144C252.043,690.376 251.475,690.492 250.803,690.492C250.467,690.492 250.115,690.456 249.747,690.384C249.379,690.312 249.039,690.196 248.727,690.036C248.415,689.876 248.151,689.668 247.935,689.412C247.719,689.156 247.603,688.844 247.587,688.476L245.547,688.476C245.579,689.148 245.755,689.716 246.075,690.18C246.395,690.644 246.799,691.02 247.287,691.308C247.775,691.596 248.319,691.804 248.919,691.932C249.519,692.06 250.107,692.124 250.683,692.124C252.667,692.124 254.123,691.62 255.051,690.612C255.979,689.604 256.443,688.084 256.443,686.052ZM250.731,685.452C250.059,685.452 249.499,685.312 249.051,685.032C248.603,684.752 248.243,684.384 247.971,683.928C247.699,683.472 247.507,682.964 247.395,682.404C247.283,681.844 247.227,681.284 247.227,680.724C247.227,680.132 247.295,679.564 247.431,679.02C247.567,678.476 247.783,677.996 248.079,677.58C248.375,677.164 248.755,676.832 249.219,676.584C249.683,676.336 250.243,676.212 250.899,676.212C251.539,676.212 252.083,676.34 252.531,676.596C252.979,676.852 253.343,677.192 253.623,677.616C253.903,678.04 254.107,678.516 254.235,679.044C254.363,679.572 254.427,680.108 254.427,680.652C254.427,681.228 254.359,681.804 254.223,682.38C254.087,682.956 253.875,683.472 253.587,683.928C253.299,684.384 252.919,684.752 252.447,685.032C251.975,685.312 251.403,685.452 250.731,685.452Z" style="fill:rgb(0,0,58);fill-rule:nonzero;"/>
            <path d="M267.027,676.5L267.027,687.108L269.067,687.108L269.067,676.5L271.467,676.5L271.467,674.7L269.067,674.7L269.067,672.972C269.067,672.428 269.203,672.06 269.475,671.868C269.747,671.676 270.131,671.58 270.627,671.58C270.803,671.58 270.995,671.592 271.203,671.616C271.411,671.64 271.603,671.684 271.779,671.748L271.779,669.972C271.587,669.908 271.367,669.86 271.119,669.828C270.871,669.796 270.651,669.78 270.459,669.78C269.339,669.78 268.487,670.04 267.903,670.56C267.319,671.08 267.027,671.844 267.027,672.852L267.027,674.7L264.939,674.7L264.939,676.5L267.027,676.5Z" style="fill:rgb(0,0,58);fill-rule:nonzero;"/>
            <path d="M273.219,674.7L273.219,687.108L275.259,687.108L275.259,681.588C275.259,680.788 275.339,680.08 275.499,679.464C275.659,678.848 275.915,678.324 276.267,677.892C276.619,677.46 277.083,677.132 277.659,676.908C278.235,676.684 278.931,676.572 279.747,676.572L279.747,674.412C278.643,674.38 277.731,674.604 277.011,675.084C276.291,675.564 275.683,676.308 275.187,677.316L275.139,677.316L275.139,674.7L273.219,674.7Z" style="fill:rgb(0,0,58);fill-rule:nonzero;"/>
            <path d="M289.467,679.716L282.339,679.716C282.371,679.236 282.475,678.784 282.651,678.36C282.827,677.936 283.067,677.564 283.371,677.244C283.675,676.924 284.039,676.672 284.463,676.488C284.887,676.304 285.363,676.212 285.891,676.212C286.403,676.212 286.871,676.304 287.295,676.488C287.719,676.672 288.087,676.92 288.399,677.232C288.711,677.544 288.959,677.916 289.143,678.348C289.327,678.78 289.435,679.236 289.467,679.716ZM291.435,683.172L289.419,683.172C289.243,683.988 288.879,684.596 288.327,684.996C287.775,685.396 287.067,685.596 286.203,685.596C285.531,685.596 284.947,685.484 284.451,685.26C283.955,685.036 283.547,684.736 283.227,684.36C282.907,683.984 282.675,683.552 282.531,683.064C282.387,682.576 282.323,682.06 282.339,681.516L291.627,681.516C291.659,680.764 291.591,679.972 291.423,679.14C291.255,678.308 290.951,677.54 290.511,676.836C290.071,676.132 289.487,675.552 288.759,675.096C288.031,674.64 287.115,674.412 286.011,674.412C285.163,674.412 284.383,674.572 283.671,674.892C282.959,675.212 282.343,675.66 281.823,676.236C281.303,676.812 280.899,677.492 280.611,678.276C280.323,679.06 280.179,679.924 280.179,680.868C280.211,681.812 280.351,682.684 280.599,683.484C280.847,684.284 281.219,684.972 281.715,685.548C282.211,686.124 282.823,686.572 283.551,686.892C284.279,687.212 285.139,687.372 286.131,687.372C287.539,687.372 288.707,687.02 289.635,686.316C290.563,685.612 291.163,684.564 291.435,683.172Z" style="fill:rgb(0,0,58);fill-rule:nonzero;"/>
            <path d="M302.355,679.716L295.227,679.716C295.259,679.236 295.363,678.784 295.539,678.36C295.715,677.936 295.955,677.564 296.259,677.244C296.563,676.924 296.927,676.672 297.351,676.488C297.775,676.304 298.251,676.212 298.779,676.212C299.291,676.212 299.759,676.304 300.183,676.488C300.607,676.672 300.975,676.92 301.287,677.232C301.599,677.544 301.847,677.916 302.031,678.348C302.215,678.78 302.323,679.236 302.355,679.716ZM304.323,683.172L302.307,683.172C302.131,683.988 301.767,684.596 301.215,684.996C300.663,685.396 299.955,685.596 299.091,685.596C298.419,685.596 297.835,685.484 297.339,685.26C296.843,685.036 296.435,684.736 296.115,684.36C295.795,683.984 295.563,683.552 295.419,683.064C295.275,682.576 295.211,682.06 295.227,681.516L304.515,681.516C304.547,680.764 304.479,679.972 304.311,679.14C304.143,678.308 303.839,677.54 303.399,676.836C302.959,676.132 302.375,675.552 301.647,675.096C300.919,674.64 300.003,674.412 298.899,674.412C298.051,674.412 297.271,674.572 296.559,674.892C295.847,675.212 295.231,675.66 294.711,676.236C294.191,676.812 293.787,677.492 293.499,678.276C293.211,679.06 293.067,679.924 293.067,680.868C293.099,681.812 293.239,682.684 293.487,683.484C293.735,684.284 294.107,684.972 294.603,685.548C295.099,686.124 295.711,686.572 296.439,686.892C297.167,687.212 298.027,687.372 299.019,687.372C300.427,687.372 301.595,687.02 302.523,686.316C303.451,685.612 304.051,684.564 304.323,683.172Z" style="fill:rgb(0,0,58);fill-rule:nonzero;"/>
        </g>
        <g transform="matrix(1.11706,0,0,1.34975,-90.9951,-282.576)">
            <path d="M50.289,273.022L52.133,273.022C53.174,277.792 54.857,281.261 57.18,283.428C59.503,285.594 62.164,286.678 65.164,286.678C68.081,286.678 70.154,285.933 71.383,284.443C72.612,282.954 73.227,281.386 73.227,279.74C73.227,277.824 72.581,276.261 71.289,275.053C70.435,274.261 68.716,273.23 66.133,271.959L61.977,269.897C57.852,267.855 54.945,265.834 53.258,263.834C51.57,261.834 50.727,259.365 50.727,256.428C50.727,253.303 51.846,250.386 54.086,247.678C56.326,244.969 59.758,243.615 64.383,243.615C66.737,243.615 69.013,243.969 71.211,244.678C73.409,245.386 74.664,245.74 74.977,245.74C75.685,245.74 76.174,245.537 76.445,245.131C76.716,244.725 76.935,244.188 77.102,243.522L79.008,243.522L79.008,257.459L77.227,257.459C76.372,254.23 74.867,251.449 72.711,249.115C70.555,246.782 67.935,245.615 64.852,245.615C62.685,245.615 60.971,246.204 59.711,247.381C58.451,248.558 57.82,249.99 57.82,251.678C57.82,253.699 58.414,255.209 59.602,256.209C60.768,257.23 63.362,258.73 67.383,260.709L72.195,263.084C74.341,264.147 76.049,265.324 77.32,266.615C79.695,269.032 80.883,271.969 80.883,275.428C80.883,278.657 79.607,281.704 77.055,284.568C74.503,287.433 70.414,288.865 64.789,288.865C63.497,288.865 62.19,288.745 60.867,288.506C59.544,288.266 58.237,287.897 56.945,287.397L55.695,286.928C55.404,286.844 55.122,286.777 54.852,286.725C54.581,286.673 54.352,286.647 54.164,286.647C53.497,286.647 53.039,286.839 52.789,287.225C52.539,287.61 52.32,288.157 52.133,288.865L50.289,288.865L50.289,273.022Z" style="fill:white;fill-rule:nonzero;"/>
            <path d="M84.227,287.084C85.935,286.855 87.055,286.433 87.586,285.818C88.117,285.204 88.383,283.751 88.383,281.459L88.383,251.459C88.383,250.292 88.232,249.433 87.93,248.881C87.628,248.329 86.893,248.053 85.727,248.053C85.497,248.053 85.273,248.068 85.055,248.1C84.836,248.131 84.591,248.167 84.32,248.209L84.32,247.084C85.237,246.813 86.367,246.485 87.711,246.1C89.055,245.714 89.987,245.438 90.508,245.272L93.508,244.334L93.57,244.553L93.57,263.74C94.883,262.24 96.049,261.136 97.07,260.428C98.904,259.178 100.883,258.553 103.008,258.553C106.383,258.553 108.685,259.969 109.914,262.803C110.581,264.303 110.914,266.272 110.914,268.709L110.914,281.459C110.914,283.667 111.169,285.105 111.68,285.772C112.19,286.438 113.237,286.876 114.82,287.084L114.82,287.959L101.289,287.959L101.289,287.084C103.102,286.834 104.268,286.407 104.789,285.803C105.31,285.199 105.57,283.751 105.57,281.459L105.57,268.803C105.57,266.782 105.232,265.147 104.555,263.897C103.878,262.647 102.602,262.022 100.727,262.022C99.102,262.022 97.529,262.605 96.008,263.772C94.487,264.938 93.727,265.699 93.727,266.053L93.727,281.459C93.727,283.792 93.997,285.251 94.539,285.834C95.081,286.417 96.237,286.834 98.008,287.084L98.008,287.959L84.227,287.959L84.227,287.084Z" style="fill:white;fill-rule:nonzero;"/>
            <path d="M120.914,247.615C120.914,246.719 121.227,245.949 121.852,245.303C122.477,244.657 123.247,244.334 124.164,244.334C125.06,244.334 125.826,244.652 126.461,245.287C127.096,245.923 127.414,246.699 127.414,247.615C127.414,248.511 127.096,249.277 126.461,249.912C125.826,250.548 125.06,250.865 124.164,250.865C123.247,250.865 122.477,250.548 121.852,249.912C121.227,249.277 120.914,248.511 120.914,247.615ZM116.914,287.084C119.143,286.876 120.549,286.495 121.133,285.943C121.716,285.391 122.008,283.897 122.008,281.459L122.008,266.553C122.008,265.199 121.914,264.261 121.727,263.74C121.414,262.886 120.758,262.459 119.758,262.459C119.529,262.459 119.305,262.48 119.086,262.522C118.867,262.563 118.237,262.73 117.195,263.022L117.195,262.053L118.539,261.615C122.185,260.428 124.727,259.532 126.164,258.928C126.747,258.678 127.122,258.553 127.289,258.553C127.331,258.699 127.352,258.855 127.352,259.022L127.352,281.459C127.352,283.834 127.638,285.324 128.211,285.928C128.784,286.532 130.081,286.917 132.102,287.084L132.102,287.959L116.914,287.959L116.914,287.084Z" style="fill:white;fill-rule:nonzero;"/>
            <path d="M143.664,282.209C144.206,283.626 145.013,284.683 146.086,285.381C147.159,286.079 148.424,286.428 149.883,286.428C152.133,286.428 154.055,285.308 155.648,283.068C157.242,280.829 158.039,277.709 158.039,273.709C158.039,269.876 157.211,267.011 155.555,265.115C153.898,263.219 151.977,262.272 149.789,262.272C148.247,262.272 146.841,262.745 145.57,263.693C144.299,264.641 143.664,265.574 143.664,266.49L143.664,282.209ZM133.727,300.865C135.685,300.74 136.93,300.324 137.461,299.615C137.992,298.907 138.258,297.792 138.258,296.272L138.258,266.272C138.258,264.688 138.065,263.673 137.68,263.225C137.294,262.777 136.57,262.553 135.508,262.553C135.279,262.553 135.065,262.563 134.867,262.584C134.669,262.605 134.383,262.647 134.008,262.709L134.008,261.678L136.977,260.709C137.081,260.688 139.174,259.969 143.258,258.553C143.362,258.553 143.44,258.6 143.492,258.693C143.544,258.787 143.57,258.897 143.57,259.022L143.57,263.24C144.945,261.865 146.154,260.844 147.195,260.178C149.07,259.011 150.997,258.428 152.977,258.428C155.852,258.428 158.326,259.652 160.398,262.1C162.471,264.548 163.508,267.897 163.508,272.147C163.508,276.313 162.263,280.094 159.773,283.49C157.284,286.886 154.154,288.584 150.383,288.584C149.216,288.584 148.206,288.438 147.352,288.147C146.018,287.709 144.789,286.907 143.664,285.74L143.664,295.959C143.664,298.063 144.008,299.355 144.695,299.834C145.383,300.313 146.883,300.636 149.195,300.803L149.195,301.897L133.727,301.897L133.727,300.865Z" style="fill:white;fill-rule:nonzero;"/>
        </g>
        <g transform="matrix(1.33085,0,0,1.59884,-123.524,-124.512)">
            <path d="M353.224,68.724L290.764,92.239C290.506,92.337 290.375,92.625 290.472,92.883C290.569,93.142 290.858,93.272 291.116,93.175L353.576,69.66C353.834,69.562 353.965,69.274 353.868,69.016C353.77,68.757 353.482,68.627 353.224,68.724Z" style="fill:white;"/>
        </g>
        <g transform="matrix(1.33085,0,0,1.59884,99.4163,-45.5975)">
            <path d="M353.747,73.589L290.798,92.228C290.534,92.306 290.382,92.585 290.461,92.849C290.539,93.114 290.817,93.265 291.082,93.187L354.031,74.548C354.296,74.469 354.447,74.191 354.369,73.926C354.29,73.662 354.012,73.511 353.747,73.589Z" style="fill:white;"/>
        </g>
        <g transform="matrix(-1.33085,0,0,1.59884,843.838,-103.018)">
            <path d="M354.202,65.605L338.596,104.298C338.493,104.554 338.201,104.677 337.945,104.574C337.689,104.471 337.565,104.179 337.669,103.924L353.275,65.231C353.378,64.975 353.67,64.851 353.926,64.955C354.182,65.058 354.306,65.349 354.202,65.605Z" style="fill:white;"/>
        </g>
        <g transform="matrix(-1.33085,0,0,1.59884,1075.42,2.07723)">
            <path d="M354.201,65.609L331.81,119.93C331.705,120.185 331.412,120.307 331.157,120.201C330.902,120.096 330.78,119.804 330.885,119.549L353.276,65.228C353.382,64.973 353.674,64.851 353.929,64.956C354.184,65.061 354.306,65.354 354.201,65.609Z" style="fill:white;"/>
        </g>
        <g transform="matrix(1.50079,2.33256,-1.94159,1.80301,11.2594,-809.771)">
            <path d="M281.501,91.727C281.501,91.727 282.416,85.438 283.526,85.22C284.912,84.947 287.664,83.709 289.418,82.289C289.464,82.252 287.559,88.345 287.559,88.345C287.559,88.345 286.635,88.287 285.447,89.329C284.229,90.398 283.856,89.531 281.501,91.727Z" style="fill:white;"/>
        </g>
        <g transform="matrix(1.3803,2.4376,-2.02901,1.65825,276.392,-747.613)">
            <path d="M281.501,91.727C281.501,91.727 282.416,85.438 283.526,85.22C284.912,84.947 287.664,83.709 289.418,82.289C289.464,82.252 287.559,88.345 287.559,88.345C287.559,88.345 286.635,88.287 285.447,89.329C284.229,90.398 283.856,89.531 281.501,91.727Z" style="fill:white;"/>
        </g>
        <g transform="matrix(1.50079,2.33256,-1.94159,1.80301,66.4498,-835.219)">
            <path d="M281.501,91.727C281.501,91.727 282.416,85.438 283.526,85.22C284.912,84.947 287.664,83.709 289.418,82.289C289.464,82.252 287.559,88.345 287.559,88.345C287.559,88.345 286.635,88.287 285.447,89.329C284.229,90.398 283.856,89.531 281.501,91.727Z" style="fill:white;"/>
        </g>
        <g transform="matrix(1.32273,2.48324,-2.067,1.58909,351.13,-774.308)">
            <path d="M281.501,91.727C281.501,91.727 282.416,85.438 283.526,85.22C284.912,84.947 287.664,83.709 289.418,82.289C289.464,82.252 287.559,88.345 287.559,88.345C287.559,88.345 286.635,88.287 285.447,89.329C284.229,90.398 283.856,89.531 281.501,91.727Z" style="fill:white;"/>
        </g>
        <g transform="matrix(1.92021,-1.83575,1.52805,2.30688,-297.326,377.663)">
            <path d="M281.501,91.727C281.501,91.727 282.416,85.438 283.526,85.22C284.912,84.947 287.664,83.709 289.418,82.289C289.464,82.252 287.559,88.345 287.559,88.345C287.559,88.345 286.635,88.287 285.447,89.329C284.229,90.398 283.856,89.531 281.501,91.727Z" style="fill:white;"/>
        </g>
        <g transform="matrix(-0.134217,-2.94375,-2.45033,0.161244,554.355,840.286)">
            <path d="M281.501,91.727C281.501,91.727 282.416,85.438 283.526,85.22C284.912,84.947 287.664,83.709 289.418,82.289C289.464,82.252 287.559,88.345 287.559,88.345C287.559,88.345 286.635,88.287 285.447,89.329C284.229,90.398 283.856,89.531 281.501,91.727Z" style="fill:white;"/>
        </g>
        <g transform="matrix(0.00371731,-2.94816,-2.454,-0.00446587,739.537,938.027)">
            <path d="M281.501,91.727C281.501,91.727 282.416,85.438 283.526,85.22C284.912,84.947 287.664,83.709 289.418,82.289C289.464,82.252 287.559,88.345 287.559,88.345C287.559,88.345 286.635,88.287 285.447,89.329C284.229,90.398 283.856,89.531 281.501,91.727Z" style="fill:white;"/>
        </g>
        <g transform="matrix(-2.44626,0.233997,0.194775,2.93887,1067.1,-302.938)">
            <path d="M281.501,91.727C281.501,91.727 282.416,85.438 283.526,85.22C284.912,84.947 287.664,83.709 289.418,82.289C289.464,82.252 287.559,88.345 287.559,88.345C287.559,88.345 286.635,88.287 285.447,89.329C284.229,90.398 283.856,89.531 281.501,91.727Z" style="fill:white;"/>
        </g>
        <g transform="matrix(-2.44626,0.233997,0.194775,2.93887,1298.68,-197.842)">
            <path d="M281.501,91.727C281.501,91.727 282.416,85.438 283.526,85.22C284.912,84.947 287.664,83.709 289.418,82.289C289.464,82.252 287.559,88.345 287.559,88.345C287.559,88.345 286.635,88.287 285.447,89.329C284.229,90.398 283.856,89.531 281.501,91.727Z" style="fill:white;"/>
        </g>
        <g transform="matrix(-2.44626,0.233997,0.194775,2.93887,1314.97,-150.132)">
            <path d="M281.501,91.727C281.501,91.727 282.416,85.438 283.526,85.22C284.912,84.947 287.664,83.709 289.418,82.289C289.464,82.252 287.559,88.345 287.559,88.345C287.559,88.345 286.635,88.287 285.447,89.329C284.229,90.398 283.856,89.531 281.501,91.727Z" style="fill:white;"/>
        </g>
        <g transform="matrix(1.33085,0,0,1.59884,-118.645,-119.7)">
            <path d="M608.237,250.772L613.397,210.415C613.432,210.141 613.238,209.89 612.964,209.855C612.69,209.82 612.44,210.014 612.405,210.288L607.245,250.645C607.21,250.919 607.403,251.17 607.677,251.205C607.951,251.24 608.202,251.046 608.237,250.772Z" style="fill:white;"/>
        </g>
        <g transform="matrix(-4.74598,-2.65212,-1.03498,2.67314,2155.79,764.222)">
            <path d="M280.487,88.137C280.487,88.137 282.403,81.368 283.513,81.149C284.9,80.877 287.664,83.709 289.418,82.289C289.464,82.252 287.964,92.292 287.964,92.292C287.964,92.292 286.082,88.828 284.895,89.87C283.677,90.939 282.842,85.941 280.487,88.137Z" style="fill:white;"/>
        </g>
    </g>
</svg>
